<mxfile host="app.diagrams.net" modified="2021-02-07T01:54:30.987Z" agent="5.0 (Windows NT 10.0; Win64; x64) AppleWebKit/537.36 (KHTML, like Gecko) Chrome/88.0.4324.146 Safari/537.36" etag="nT6pQKY_7cMygRPvP1sb" version="14.2.9" type="github">
  <diagram id="3mtipOZuR2I4YL5fdZTJ" name="Page-1">
    <mxGraphModel dx="868" dy="393" grid="1" gridSize="10" guides="1" tooltips="1" connect="1" arrows="1" fold="1" page="1" pageScale="1" pageWidth="850" pageHeight="1100" math="0" shadow="0">
      <root>
        <mxCell id="0" />
        <mxCell id="1" parent="0" />
        <mxCell id="u_JP4p4i18UY5HWvqSIO-41" value="main page" style="shape=umlLifeline;perimeter=lifelinePerimeter;container=1;collapsible=0;recursiveResize=0;rounded=0;shadow=0;strokeWidth=1;" vertex="1" parent="1">
          <mxGeometry x="73" y="540" width="100" height="370" as="geometry" />
        </mxCell>
        <mxCell id="u_JP4p4i18UY5HWvqSIO-42" value="" style="points=[];perimeter=orthogonalPerimeter;rounded=0;shadow=0;strokeWidth=1;" vertex="1" parent="u_JP4p4i18UY5HWvqSIO-41">
          <mxGeometry x="45" y="80" width="10" height="290" as="geometry" />
        </mxCell>
        <mxCell id="u_JP4p4i18UY5HWvqSIO-43" value="request code" style="shape=umlLifeline;perimeter=lifelinePerimeter;container=1;collapsible=0;recursiveResize=0;rounded=0;shadow=0;strokeWidth=1;" vertex="1" parent="1">
          <mxGeometry x="253" y="540" width="115" height="430" as="geometry" />
        </mxCell>
        <mxCell id="u_JP4p4i18UY5HWvqSIO-44" value="" style="points=[];perimeter=orthogonalPerimeter;rounded=0;shadow=0;strokeWidth=1;" vertex="1" parent="u_JP4p4i18UY5HWvqSIO-43">
          <mxGeometry x="45" y="80" width="10" height="210" as="geometry" />
        </mxCell>
        <mxCell id="u_JP4p4i18UY5HWvqSIO-45" value="user" style="shape=umlActor;verticalLabelPosition=bottom;labelBackgroundColor=#ffffff;verticalAlign=top;html=1;outlineConnect=0;" vertex="1" parent="1">
          <mxGeometry x="23" y="648" width="50" height="120" as="geometry" />
        </mxCell>
        <mxCell id="u_JP4p4i18UY5HWvqSIO-46" value="code page" style="shape=umlLifeline;perimeter=lifelinePerimeter;container=1;collapsible=0;recursiveResize=0;rounded=0;shadow=0;strokeWidth=1;" vertex="1" parent="1">
          <mxGeometry x="408" y="540" width="115" height="430" as="geometry" />
        </mxCell>
        <mxCell id="u_JP4p4i18UY5HWvqSIO-47" value="" style="points=[];perimeter=orthogonalPerimeter;rounded=0;shadow=0;strokeWidth=1;" vertex="1" parent="u_JP4p4i18UY5HWvqSIO-46">
          <mxGeometry x="45" y="90" width="10" height="230" as="geometry" />
        </mxCell>
        <mxCell id="u_JP4p4i18UY5HWvqSIO-48" value="enter meter id and amount&#xa;you want and card id" style="verticalAlign=bottom;endArrow=block;shadow=0;strokeWidth=1;" edge="1" parent="1" target="u_JP4p4i18UY5HWvqSIO-51">
          <mxGeometry x="0.4968" y="12" relative="1" as="geometry">
            <mxPoint x="308" y="682" as="sourcePoint" />
            <mxPoint x="454" y="680" as="targetPoint" />
            <mxPoint as="offset" />
          </mxGeometry>
        </mxCell>
        <mxCell id="u_JP4p4i18UY5HWvqSIO-49" value="return the code after &#xa;a verfication message to &#xa;confirm process" style="verticalAlign=bottom;endArrow=open;dashed=1;endSize=8;shadow=0;strokeWidth=1;entryX=0.496;entryY=0.558;entryDx=0;entryDy=0;entryPerimeter=0;exitX=0;exitY=0.629;exitDx=0;exitDy=0;exitPerimeter=0;" edge="1" parent="1" source="u_JP4p4i18UY5HWvqSIO-52" target="u_JP4p4i18UY5HWvqSIO-46">
          <mxGeometry x="-0.0635" y="-1" relative="1" as="geometry">
            <mxPoint x="310.5" y="760" as="targetPoint" />
            <mxPoint x="470" y="760" as="sourcePoint" />
            <mxPoint as="offset" />
          </mxGeometry>
        </mxCell>
        <mxCell id="u_JP4p4i18UY5HWvqSIO-50" value="use the code to charge&#xa;meter" style="verticalAlign=bottom;endArrow=block;shadow=0;strokeWidth=1;entryX=0;entryY=0.843;entryDx=0;entryDy=0;entryPerimeter=0;" edge="1" parent="1" target="u_JP4p4i18UY5HWvqSIO-52">
          <mxGeometry x="-0.0629" relative="1" as="geometry">
            <mxPoint x="463" y="825" as="sourcePoint" />
            <mxPoint x="458" y="869" as="targetPoint" />
            <mxPoint as="offset" />
          </mxGeometry>
        </mxCell>
        <mxCell id="u_JP4p4i18UY5HWvqSIO-51" value="database" style="shape=umlLifeline;perimeter=lifelinePerimeter;container=1;collapsible=0;recursiveResize=0;rounded=0;shadow=0;strokeWidth=1;" vertex="1" parent="1">
          <mxGeometry x="561" y="540" width="115" height="440" as="geometry" />
        </mxCell>
        <mxCell id="u_JP4p4i18UY5HWvqSIO-52" value="" style="points=[];perimeter=orthogonalPerimeter;rounded=0;shadow=0;strokeWidth=1;" vertex="1" parent="u_JP4p4i18UY5HWvqSIO-51">
          <mxGeometry x="45" y="108" width="10" height="210" as="geometry" />
        </mxCell>
        <mxCell id="u_JP4p4i18UY5HWvqSIO-53" value="" style="endArrow=none;dashed=1;html=1;" edge="1" parent="1">
          <mxGeometry width="50" height="50" relative="1" as="geometry">
            <mxPoint x="130" y="970" as="sourcePoint" />
            <mxPoint x="130" y="579" as="targetPoint" />
          </mxGeometry>
        </mxCell>
        <mxCell id="u_JP4p4i18UY5HWvqSIO-54" value="" style="endArrow=classic;html=1;entryX=-0.2;entryY=0.09;entryDx=0;entryDy=0;entryPerimeter=0;" edge="1" parent="1" target="u_JP4p4i18UY5HWvqSIO-44">
          <mxGeometry width="50" height="50" relative="1" as="geometry">
            <mxPoint x="130" y="639" as="sourcePoint" />
            <mxPoint x="180" y="650" as="targetPoint" />
          </mxGeometry>
        </mxCell>
        <mxCell id="u_JP4p4i18UY5HWvqSIO-55" value="choose&amp;nbsp; request code option" style="text;html=1;align=center;verticalAlign=middle;resizable=0;points=[];autosize=1;" vertex="1" parent="1">
          <mxGeometry x="125" y="620" width="170" height="20" as="geometry" />
        </mxCell>
        <mxCell id="u_JP4p4i18UY5HWvqSIO-56" value="save in topup table" style="verticalAlign=bottom;endArrow=block;shadow=0;strokeWidth=1;" edge="1" parent="1">
          <mxGeometry x="0.5177" y="10" relative="1" as="geometry">
            <mxPoint x="310" y="722" as="sourcePoint" />
            <mxPoint x="600" y="720" as="targetPoint" />
            <mxPoint as="offset" />
          </mxGeometry>
        </mxCell>
        <mxCell id="u_JP4p4i18UY5HWvqSIO-57" value="charged successfully" style="verticalAlign=bottom;endArrow=open;dashed=1;endSize=8;shadow=0;strokeWidth=1;entryX=0.496;entryY=0.448;entryDx=0;entryDy=0;entryPerimeter=0;exitX=0;exitY=0.629;exitDx=0;exitDy=0;exitPerimeter=0;" edge="1" parent="1">
          <mxGeometry x="-0.0635" y="-1" relative="1" as="geometry">
            <mxPoint x="460" y="850.0040000000001" as="targetPoint" />
            <mxPoint x="600.96" y="851.31" as="sourcePoint" />
            <mxPoint as="offset" />
          </mxGeometry>
        </mxCell>
      </root>
    </mxGraphModel>
  </diagram>
</mxfile>
